# xmcd CD database file
#
# Track frame offsets:
#	150
#	20202
#	49025
#	91704
#	114012
#	146960
#	173910
#	207982
#	234597
#	263417
#	305955
#
# Disc length: 4542 seconds
#
# Revision: 0
# Processed by: cddbd v1.5.1PL0 Copyright (c) Steve Scherf et al.
# Submitted via: CDex 1.51
#
DISCID=9511bc0b
DTITLE=Carieban Jazz Project - Island Stories
DYEAR=1997
DGENRE=Jazz
TTITLE0=Bluellespie
TTITLE1=Sadie's Dance
TTITLE2=Calabash
TTITLE3=Tjaded Motion
TTITLE4=Zigzag
TTITLE5=Andalucia
TTITLE6=Shadow Play
TTITLE7=Libertango
TTITLE8=The Lost Voice
TTITLE9=Grass Roots
TTITLE10=Data
EXTD=YEAR: 1997
EXTT0=
EXTT1=
EXTT2=
EXTT3=
EXTT4=
EXTT5=
EXTT6=
EXTT7=
EXTT8=
EXTT9=
EXTT10=
PLAYORDER=
